<svg width="42" height="42" viewBox="0 0 42 42" fill="none" xmlns="http://www.w3.org/2000/svg">
  <path d="M12.9663 21.6999L12.9666 21.6999C15.6322 21.9467 17.7043 24.1275 17.7043 26.8099C17.7043 28.1692 17.1643 29.4727 16.2032 30.4339C15.2431 31.394 13.9413 31.9338 12.5836 31.9349C11.8194 31.9277 11.0642 31.7688 10.3618 31.4674C9.66008 31.1664 9.02509 30.7292 8.49353 30.1811C6.87794 28.4632 6 26.5657 6 23.3292C6 17.9464 9.62452 12.9739 15.169 10.277L16.7891 12.8815C15.5513 14.5235 14.6567 15.6716 13.9758 16.5453L13.914 16.6247C13.1917 17.5516 12.6931 18.1927 12.2813 18.7992C12.2408 18.8416 12.1876 18.8992 12.1289 18.9679C12.0135 19.103 11.8398 19.3235 11.7111 19.5826C11.6088 19.7883 11.385 20.3125 11.6398 20.8727C11.9249 21.4992 12.5543 21.6616 12.9663 21.6999ZM34.5476 13.4201C34.5466 13.421 34.5449 13.4226 34.5424 13.4249C34.5577 13.4091 34.5622 13.4064 34.5476 13.4201ZM33.8844 12.146C33.9583 12.3678 34.0715 12.8363 34.1648 13.7401C34.0662 13.8211 33.9515 13.9153 33.82 14.0243C33.1989 14.539 32.3002 15.3038 31.4997 16.1301C30.7394 16.9148 29.9135 17.9062 29.6348 18.8751C29.4847 19.3972 29.4583 20.0413 29.8341 20.6295C30.1958 21.1957 30.8026 21.5062 31.457 21.6731L31.5335 21.6927L31.6121 21.6999C32.8988 21.819 33.7495 22.3847 34.308 23.2161C34.8916 24.0847 35.2042 25.3212 35.2042 26.8099C35.2042 28.1692 34.6643 29.4727 33.7032 30.4339C32.7431 31.394 31.4413 31.9338 30.0836 31.9349C29.3194 31.9277 28.5641 31.7688 27.8618 31.4674C27.1601 31.1664 26.5251 30.7292 25.9936 30.1811C24.378 28.4632 23.5 26.5657 23.5 23.3292C23.5 17.9417 27.1309 12.9651 32.6837 10.2699L33.7761 11.9555L33.8667 12.0954C33.872 12.1098 33.878 12.1266 33.8844 12.146Z" stroke="#080708" stroke-width="2"/>
</svg>
