<svg width="44" height="44" viewBox="0 0 44 44" fill="none" xmlns="http://www.w3.org/2000/svg">
  <path d="M14.3 3.66667H29.7C35.5666 3.66667 40.3333 8.43334 40.3333 14.3V29.7C40.3333 32.5201 39.213 35.2248 37.2189 37.2189C35.2247 39.213 32.5201 40.3333 29.7 40.3333H14.3C8.43329 40.3333 3.66663 35.5667 3.66663 29.7V14.3C3.66663 11.4799 4.78692 8.77524 6.78106 6.7811C8.77519 4.78697 11.4798 3.66667 14.3 3.66667ZM13.9333 7.33334C12.1829 7.33334 10.5041 8.02869 9.26639 9.26643C8.02865 10.5042 7.33329 12.1829 7.33329 13.9333V30.0667C7.33329 33.715 10.285 36.6667 13.9333 36.6667H30.0666C31.8171 36.6667 33.4958 35.9713 34.7335 34.7336C35.9713 33.4958 36.6666 31.8171 36.6666 30.0667V13.9333C36.6666 10.285 33.715 7.33334 30.0666 7.33334H13.9333ZM31.625 10.0833C32.2327 10.0833 32.8156 10.3248 33.2454 10.7546C33.6752 11.1843 33.9166 11.7672 33.9166 12.375C33.9166 12.9828 33.6752 13.5657 33.2454 13.9955C32.8156 14.4252 32.2327 14.6667 31.625 14.6667C31.0172 14.6667 30.4343 14.4252 30.0045 13.9955C29.5747 13.5657 29.3333 12.9828 29.3333 12.375C29.3333 11.7672 29.5747 11.1843 30.0045 10.7546C30.4343 10.3248 31.0172 10.0833 31.625 10.0833ZM22 12.8333C24.4311 12.8333 26.7627 13.7991 28.4818 15.5182C30.2009 17.2373 31.1666 19.5689 31.1666 22C31.1666 24.4312 30.2009 26.7627 28.4818 28.4818C26.7627 30.2009 24.4311 31.1667 22 31.1667C19.5688 31.1667 17.2372 30.2009 15.5181 28.4818C13.7991 26.7627 12.8333 24.4312 12.8333 22C12.8333 19.5689 13.7991 17.2373 15.5181 15.5182C17.2372 13.7991 19.5688 12.8333 22 12.8333ZM22 16.5C20.5413 16.5 19.1423 17.0795 18.1109 18.1109C17.0794 19.1424 16.5 20.5413 16.5 22C16.5 23.4587 17.0794 24.8576 18.1109 25.8891C19.1423 26.9205 20.5413 27.5 22 27.5C23.4586 27.5 24.8576 26.9205 25.889 25.8891C26.9205 24.8576 27.5 23.4587 27.5 22C27.5 20.5413 26.9205 19.1424 25.889 18.1109C24.8576 17.0795 23.4586 16.5 22 16.5Z" fill="#080708"/>
</svg>
