<svg width="270" height="70" viewBox="0 0 270 70" fill="none" xmlns="http://www.w3.org/2000/svg">
  <path d="M34.8438 41.336L25.5469 14.6172L16.2891 41.336H34.8438ZM49.4141 62.8594H39.8047C39.5703 62.8594 39.4401 62.7292 39.4141 62.4688C39.4141 62.1823 39.5052 62.0391 39.6875 62.0391L40.0391 62.0782C40.7161 62.0782 41.0417 61.4792 41.0156 60.2813C41.0156 59.6042 39.1406 54.1928 35.3906 43.3594H25.5469H15.7031L11.0938 56.375C10.9896 56.7396 10.8854 57.0521 10.7812 57.3125C10.5729 57.8854 10.4167 58.3802 10.3125 58.7969C10.2083 59.2136 10.1562 59.6823 10.1562 60.2032L10.2344 61.2969C10.2865 61.8177 10.638 62.0782 11.2891 62.0782C11.5755 62.0782 11.7448 62.2084 11.7969 62.4688C11.7969 62.7292 11.6667 62.8594 11.4062 62.8594H5.39062C5.13021 62.8594 5 62.7292 5 62.4688C5 62.1823 5.16927 62.0521 5.50781 62.0782C6.15885 62.0782 6.8099 61.6615 7.46094 60.8282C8.11198 59.9948 8.64583 58.9922 9.0625 57.8203L26.6016 7H28.2031L45.7031 57.8203C46.1458 58.9922 46.6927 59.9948 47.3438 60.8282C47.9948 61.6615 48.6458 62.0782 49.2969 62.0782C49.6094 62.0782 49.7786 62.2084 49.8047 62.4688C49.8047 62.7292 49.6745 62.8594 49.4141 62.8594ZM101.148 62.8594H59.0781V61.1797L93.8828 8.71876H71.9688C69.3646 8.71876 67.0599 9.20052 65.0547 10.1641C63.0755 11.1016 61.4427 15.7839 61.0782 17.1641C61.0782 17.3464 61.0521 17.4896 61 17.5938C60.948 17.6979 60.5729 17.7109 60.3906 17.7109C60.2864 17.6849 60.1953 17.6458 60.1171 17.5938C60.039 17.5417 60 17.4635 60 17.3594L61.8906 7H100.68V8.71876L65.875 61.1797H91.1484C93.7526 61.1797 96.0443 60.711 98.0234 59.7735C100.003 58.8099 101.789 54.8438 102.102 53.4376C102.128 53.3855 102.154 53.3464 102.18 53.3204C102.232 53.1902 102.284 53.086 102.336 53.0079C102.414 52.9298 102.531 52.8907 102.688 52.8907C102.896 52.9688 103 53.1251 103 53.3594L101.148 62.8594ZM134.016 63.9922C129.901 63.9922 126.385 63.237 123.469 61.7266C120.552 60.2162 118.312 58.1979 116.75 55.6719C115.214 53.1198 114.445 50.3073 114.445 47.2344V12.0781C114.445 10.6458 114.224 9.59114 113.781 8.91406C113.339 8.23697 112.779 7.89843 112.102 7.89843C111.997 7.89843 111.893 7.85938 111.789 7.78125C111.711 7.67708 111.672 7.57292 111.672 7.46875C111.672 7.33854 111.711 7.2474 111.789 7.19531C111.893 7.11719 111.997 7.07812 112.102 7.07812H122.414C122.544 7.07812 122.648 7.11719 122.727 7.19531C122.805 7.2474 122.844 7.33854 122.844 7.46875C122.844 7.57292 122.805 7.67708 122.727 7.78125C122.648 7.85938 122.544 7.89843 122.414 7.89843C121.763 7.89843 121.203 8.23697 120.734 8.91406C120.266 9.59114 120.031 10.6458 120.031 12.0781V47.2344C120.109 50.0209 120.76 52.5339 121.984 54.7735C123.208 57.013 124.992 58.8099 127.336 60.1641C129.706 61.4922 132.583 62.1563 135.969 62.1563C139.25 62.1563 142.076 61.4532 144.445 60.0469C146.815 58.6146 148.638 56.7656 149.914 54.5C151.216 52.2344 151.867 49.8125 151.867 47.2344V12.0781C151.867 10.6458 151.633 9.59114 151.164 8.91406C150.721 8.23697 150.161 7.89843 149.484 7.89843C149.38 7.89843 149.276 7.85938 149.172 7.78125C149.094 7.67708 149.055 7.57292 149.055 7.46875C149.055 7.33854 149.094 7.2474 149.172 7.19531C149.276 7.11719 149.38 7.07812 149.484 7.07812H155.891C156.021 7.07812 156.125 7.11719 156.203 7.19531C156.281 7.2474 156.32 7.33854 156.32 7.46875C156.32 7.65104 156.255 7.76823 156.125 7.82031C155.995 7.87239 155.826 7.89843 155.617 7.89843C155.044 7.89843 154.549 8.31511 154.133 9.14844C153.742 9.95573 153.547 10.9323 153.547 12.0781V47.2344C153.547 50.3073 152.805 53.1198 151.32 55.6719C149.862 58.1979 147.674 60.2162 144.758 61.7266C141.867 63.237 138.286 63.9922 134.016 63.9922ZM211.571 62.8594H208.641C206.948 62.8594 205.542 62.7813 204.422 62.625C203.328 62.4427 202.273 61.9219 201.258 61.0625C200.242 60.2032 199.057 58.7709 197.703 56.7656L182.156 34.8594H178.055H173.953V57.8203C173.953 59.2526 174.188 60.3203 174.656 61.0235C175.125 61.7005 175.685 62.0391 176.336 62.0391C176.466 62.0391 176.57 62.0782 176.648 62.1563C176.727 62.2084 176.766 62.2995 176.766 62.4297C176.766 62.5339 176.727 62.638 176.648 62.7422C176.57 62.8203 176.466 62.8594 176.336 62.8594H166.023C165.919 62.8594 165.815 62.8203 165.711 62.7422C165.633 62.638 165.594 62.5339 165.594 62.4297C165.594 62.2214 165.659 62.1042 165.789 62.0782C165.945 62.0521 166.115 62.0391 166.297 62.0391C166.87 62.0391 167.352 61.6354 167.742 60.8282C168.159 59.9948 168.367 58.9922 168.367 57.8203V11.9609C168.367 10.5807 168.146 9.55208 167.703 8.87499C167.26 8.19792 166.701 7.85938 166.023 7.85938C165.919 7.85938 165.815 7.82031 165.711 7.74219C165.633 7.66406 165.594 7.57292 165.594 7.46875C165.594 7.33854 165.633 7.23438 165.711 7.15625C165.815 7.07812 165.919 7.03906 166.023 7.03906H185.125C188.224 7.03906 191.036 7.61198 193.562 8.75782C196.089 9.90365 198.107 11.5052 199.617 13.5625C201.128 15.5938 201.883 17.9375 201.883 20.5938C201.883 22.8854 201.31 24.9558 200.164 26.8047C199.018 28.6276 197.456 30.1511 195.477 31.375C193.497 32.5729 191.526 33.4167 189 33.8594L205.203 57.8203C206.01 59.0183 206.896 60.0209 207.859 60.8282C208.823 61.6354 210.724 62.0391 211.297 62.0391H211.571C211.701 62.0391 211.805 62.0782 211.883 62.1563C211.961 62.2084 212 62.2995 212 62.4297C212 62.5599 211.961 62.6641 211.883 62.7422C211.805 62.8203 211.701 62.8594 211.571 62.8594ZM185.125 32.4297C187.078 32.4297 188.862 31.9349 190.477 30.9453C192.091 29.9297 193.367 28.5365 194.305 26.7656C195.268 24.9688 195.75 22.9115 195.75 20.5938C195.75 18.25 195.268 16.1927 194.305 14.4219C193.367 12.625 192.091 11.2318 190.477 10.2422C188.862 9.22657 187.078 8.71876 185.125 8.71876H178.133C176.987 8.71876 175.997 8.92709 175.164 9.34376C174.357 9.73438 173.953 10.2292 173.953 10.8281V32.4297H185.125ZM249.203 41.336L239.906 14.6172L230.648 41.336H249.203ZM263.773 62.8594H254.164C253.93 62.8594 253.799 62.7292 253.773 62.4688C253.773 62.1823 253.865 62.0391 254.047 62.0391L254.398 62.0782C255.076 62.0782 255.401 61.4792 255.375 60.2813C255.375 59.6042 253.5 54.1928 249.75 43.3594H239.906H230.062L225.453 56.375C225.349 56.7396 225.245 57.0521 225.141 57.3125C224.932 57.8854 224.776 58.3802 224.672 58.7969C224.568 59.2136 224.516 59.6823 224.516 60.2032L224.594 61.2969C224.646 61.8177 224.997 62.0782 225.648 62.0782C225.935 62.0782 226.104 62.2084 226.156 62.4688C226.156 62.7292 226.026 62.8594 225.766 62.8594H219.75C219.49 62.8594 219.359 62.7292 219.359 62.4688C219.359 62.1823 219.529 62.0521 219.867 62.0782C220.518 62.0782 221.169 61.6615 221.82 60.8282C222.471 59.9948 223.005 58.9922 223.422 57.8203L240.961 7H242.562L260.062 57.8203C260.505 58.9922 261.052 59.9948 261.703 60.8282C262.354 61.6615 263.005 62.0782 263.656 62.0782C263.969 62.0782 264.138 62.2084 264.164 62.4688C264.164 62.7292 264.034 62.8594 263.773 62.8594Z" fill="#1A1619"/>
</svg>
