<svg width="44" height="44" viewBox="0 0 44 44" fill="none" xmlns="http://www.w3.org/2000/svg">
  <path d="M22 3.66667C11.88 3.66667 3.66663 11.88 3.66663 22C3.66663 32.12 11.88 40.3333 22 40.3333C32.12 40.3333 40.3333 32.12 40.3333 22C40.3333 11.88 32.12 3.66667 22 3.66667ZM30.5066 16.1333C30.2316 19.03 29.04 26.07 28.435 29.315C28.1783 30.69 27.665 31.1483 27.1883 31.2033C26.125 31.295 25.3183 30.5067 24.2916 29.8283C22.6783 28.765 21.7616 28.105 20.2033 27.0783C18.3883 25.8867 19.5616 25.2267 20.6066 24.1633C20.8816 23.8883 25.575 19.6167 25.6666 19.2317C25.6794 19.1734 25.6777 19.1128 25.6617 19.0553C25.6457 18.9978 25.6159 18.9451 25.575 18.9017C25.465 18.81 25.3183 18.8467 25.19 18.865C25.025 18.9017 22.4583 20.6067 17.4533 23.98C16.72 24.475 16.06 24.7317 15.4733 24.7133C14.8133 24.695 13.5666 24.3467 12.6316 24.035C11.4766 23.6683 10.5783 23.4667 10.6516 22.825C10.6883 22.495 11.1466 22.165 12.0083 21.8167C17.3616 19.4883 20.9183 17.9483 22.6966 17.215C27.7933 15.0883 28.8383 14.7217 29.535 14.7217C29.6816 14.7217 30.03 14.7583 30.25 14.9417C30.4333 15.0883 30.4883 15.29 30.5066 15.4367C30.4883 15.5467 30.525 15.8767 30.5066 16.1333Z" fill="#080708"/>
</svg>
